<svg xmlns="http://www.w3.org/2000/svg" xmlns:xlink="http://www.w3.org/1999/xlink" width="23.135" height="37.282" viewBox="0 0 23.135 37.282">
  <defs>
    <clipPath id="clip-path">
      <rect width="23.135" height="37.283" fill="none"/>
    </clipPath>
  </defs>
  <g id="anziano" clip-path="url(#clip-path)">
    <g id="Group_1318" data-name="Group 1318" transform="translate(23.135 37.283) rotate(180)">
      <path id="Path_1221" data-name="Path 1221" d="M22.237-20.973c.481-.3-.219.329-.351.5-.467.616-.9,1.252-1.344,1.886q-.777,1.124-1.528,2.266c-.647.983-1.967,1.105-3.02,1.371a44.489,44.489,0,0,1-4.411.913c-2.6.925-6.026-1.907-4.231-4.976.066-.113.13-.227.195-.34-1.367-1.744-3.425-2.392-5.989-2.124-1.574.165-1.949-1.646-1.153-2.641V-42.893H1.558v18.162A9.232,9.232,0,0,1,9.213-22.3q1.174-2.132,2.288-4.3a24.942,24.942,0,0,1-5.366-5.055A1.693,1.693,0,0,1,5.9-33.576a2.1,2.1,0,0,1,.065-.639q.9-3.553,1.8-7.107c.636-2.526,4.632-1.805,3.99.734q-.9,3.554-1.8,7.108c-.007.028-.016.053-.024.081a19.17,19.17,0,0,0,4.428,3.861c.2-3.948.4-8.14.607-11.794.145-2.612,4.2-2.408,4.053.212-.277,5.028-.556,11.072-.835,16.1a1.961,1.961,0,0,1-.394,1.115,4.053,4.053,0,0,1-.27.676q-1.184,2.306-2.44,4.577.528-.141,1.051-.285c1.147-1.86,2.416-4.237,4.167-5.349C22.4-25.621,24.322-22.3,22.237-20.973Z" transform="translate(0 43.191)" fill="#38454f"/>
      <path id="Path_1222" data-name="Path 1222" d="M10.734-52.864A3.246,3.246,0,0,1,6.6-50.888a3.247,3.247,0,0,1-2.239-4Z" transform="translate(-1.353 88.003)" fill="#38454f"/>
      <path id="Path_1223" data-name="Path 1223" d="M2.1-51.269,12.383-48c.154.049.255.164.226.257l-2.337.341L3.624-49.518,1.772-51.189C1.8-51.283,1.95-51.318,2.1-51.269Z" transform="translate(-0.568 82.242)" fill="#38454f"/>
      <path id="Path_1224" data-name="Path 1224" d="M9.639-48.781a3.291,3.291,0,0,1,2.139,4.136l-6.274-2A3.291,3.291,0,0,1,9.639-48.781Z" transform="translate(-1.766 77.885)" fill="#38454f"/>
    </g>
  </g>
</svg>
