<svg xmlns="http://www.w3.org/2000/svg" xmlns:xlink="http://www.w3.org/1999/xlink" width="29.94" height="24.2" viewBox="0 0 29.94 24.2">
  <defs>
    <clipPath id="clip-path">
      <rect width="29.94" height="24.2" fill="none"/>
    </clipPath>
  </defs>
  <g id="auto" clip-path="url(#clip-path)">
    <path id="Path_1229" data-name="Path 1229" d="M7.108-4.736V-2.36A2.358,2.358,0,0,1,4.752,0,2.353,2.353,0,0,1,2.4-2.36V-4.736H0v-7.728a3.65,3.65,0,0,1,2.68-3.524L5.44-22.56A2.671,2.671,0,0,1,7.9-24.2H22.032a2.664,2.664,0,0,1,2.46,1.64l2.76,6.572a3.649,3.649,0,0,1,2.688,3.524l-.008.008v7.72h-2.4l.012,2.376A2.358,2.358,0,0,1,25.188,0a2.358,2.358,0,0,1-2.364-2.36l.008-2.376ZM4.892-8.976a2.4,2.4,0,0,0,2.4-2.388,2.388,2.388,0,0,0-2.4-2.388,2.386,2.386,0,0,0-2.4,2.388,2.4,2.4,0,0,0,2.4,2.388M27.28-11.364a2.386,2.386,0,0,0-2.4-2.388,2.388,2.388,0,0,0-2.4,2.388,2.4,2.4,0,0,0,2.4,2.388,2.4,2.4,0,0,0,2.4-2.388m-2.392-4.752-2.372-5.672a.737.737,0,0,0-.7-.488H8.112a.752.752,0,0,0-.7.488L5.052-16.116Z" transform="translate(0 24.2)" fill="#38454f"/>
  </g>
</svg>
