<svg xmlns="http://www.w3.org/2000/svg" xmlns:xlink="http://www.w3.org/1999/xlink" width="29.618" height="33.062" viewBox="0 0 29.618 33.062">
  <defs>
    <clipPath id="clip-path">
      <rect width="29.618" height="33.062" fill="none"/>
    </clipPath>
  </defs>
  <g id="disabilità_bianco" data-name="disabilità bianco" clip-path="url(#clip-path)">
    <path id="Path_1239" data-name="Path 1239" d="M8.528-24.308a2.919,2.919,0,0,0,2.928-2.906,2.909,2.909,0,0,0-2.928-2.907A2.914,2.914,0,0,0,5.6-27.215a2.925,2.925,0,0,0,2.928,2.906" transform="translate(0.592 30.122)" fill="#5e5c6f"/>
    <path id="Path_1240" data-name="Path 1240" d="M11-.5A8.664,8.664,0,0,1,2.3-9.132a8.57,8.57,0,0,1,3.052-6.534l-.16-2.7A10.857,10.857,0,0,0,0-9.132,10.965,10.965,0,0,0,11,1.793,11,11,0,0,0,21.026-4.69L19.478-7.348A8.663,8.663,0,0,1,11-.5" transform="translate(0 31.269)" fill="#5e5c6f"/>
    <path id="Path_1241" data-name="Path 1241" d="M27.67-5.061h-2.03l-4.951-8.473a1.685,1.685,0,0,0-1.414-.828H11.953l-.077-2.2H17.2a1.356,1.356,0,0,0,1.328-1.325A1.328,1.328,0,0,0,17.2-19.2H11.72l-.186-2.5a2.837,2.837,0,0,0-2.987-2.636,2.815,2.815,0,0,0-2.661,2.962l.5,8.824A2.926,2.926,0,0,0,9.375-9.906h9.5l3.886,6.667a1.747,1.747,0,0,0,1.507.794l0,.025h3.4A1.354,1.354,0,0,0,29-3.745,1.326,1.326,0,0,0,27.67-5.061" transform="translate(0.622 30.686)" fill="#5e5c6f"/>
  </g>
</svg>
