<svg xmlns="http://www.w3.org/2000/svg" xmlns:xlink="http://www.w3.org/1999/xlink" width="43.734" height="36.919" viewBox="0 0 43.734 36.919">
  <defs>
    <clipPath id="clip-path">
      <rect width="43.734" height="36.919" fill="none"/>
    </clipPath>
  </defs>
  <g id="famiglia" clip-path="url(#clip-path)">
    <path id="Path_1234" data-name="Path 1234" d="M349.229-342.032a3.445,3.445,0,0,0-3.438-3.42H338.52a3.971,3.971,0,0,0-3.494,2.08l-.505.932a3.848,3.848,0,0,1,.3,1.5,3.846,3.846,0,0,1-.737,2.268,3.826,3.826,0,0,1,1.466.43l2.028-3.743a.235.235,0,0,1,.264-.116.235.235,0,0,1,.177.228v24.182a1.743,1.743,0,0,0,1.743,1.743,1.743,1.743,0,0,0,1.743-1.743v-13.933h.753v13.933A1.743,1.743,0,0,0,344-315.95a1.743,1.743,0,0,0,1.743-1.743c0-22.51-.031-10.585-.032-24.316a.3.3,0,0,1,.3-.3.3.3,0,0,1,.308.3l.054,10.672a1.453,1.453,0,0,0,1.452,1.445h.008a1.453,1.453,0,0,0,1.445-1.46Z" transform="translate(-305.548 352.862)" fill="#38454f"/>
    <path id="Path_1235" data-name="Path 1235" d="M30.692-338.743a2.486,2.486,0,0,0-2.481-2.468H22.583a2.486,2.486,0,0,0-2.481,2.468c0,.424,0,.063-.012,2.059l-1.156-.238s-2.587-7.119-3.512-9.813c-.68-1.979-1.821-2.983-3.39-2.983H6.952c-1.569,0-2.71,1-3.39,2.983C2.508-343.667.114-337.117.09-337.052a1.466,1.466,0,0,0,.873,1.88,1.466,1.466,0,0,0,1.88-.874c.02-.056,1.74-4.759,2.914-8.083-.079.644.17-.712-2.083,10.918a.816.816,0,0,0,.8.97H5.593V-321.6a1.759,1.759,0,0,0,1.759,1.759A1.759,1.759,0,0,0,9.112-321.6V-332.24h.76V-321.6a1.759,1.759,0,0,0,1.759,1.759A1.759,1.759,0,0,0,13.39-321.6V-332.24h1.119a.815.815,0,0,0,.8-.97c-2.253-11.631-2-10.274-2.083-10.918,1.174,3.324,2.893,8.028,2.914,8.083a1.466,1.466,0,0,0,1.323.961l3.457.71a1.049,1.049,0,0,0,1.259-1.021s.017-2.944.019-3.294a.2.2,0,0,1,.2-.2.2.2,0,0,1,.2.2c0,2.826,0,16.4,0,17.577a1.258,1.258,0,0,0,1.258,1.258,1.258,1.258,0,0,0,1.258-1.258v-10.055h.543v10.055a1.258,1.258,0,0,0,1.258,1.258,1.258,1.258,0,0,0,1.258-1.258c0-7.231-.018-15.733-.022-17.621a.219.219,0,0,1,.218-.219.219.219,0,0,1,.22.218l.039,7.7a1.048,1.048,0,0,0,1.048,1.043h.005a1.048,1.048,0,0,0,1.043-1.049s0,0,0,0C30.722-332.642,30.7-337.3,30.692-338.743Z" transform="translate(0 356.764)" fill="#38454f"/>
    <path id="Path_1236" data-name="Path 1236" d="M396.4-428.3a3.01,3.01,0,0,1-3.01,3.01,3.011,3.011,0,0,1-3.011-3.01,3.011,3.011,0,0,1,3.011-3.011A3.011,3.011,0,0,1,396.4-428.3Z" transform="translate(-357.036 431.383)" fill="#38454f"/>
    <path id="Path_1237" data-name="Path 1237" d="M270.891-321.911a2.733,2.733,0,0,1-2.733,2.733,2.733,2.733,0,0,1-2.733-2.733,2.733,2.733,0,0,1,2.733-2.733A2.733,2.733,0,0,1,270.891-321.911Z" transform="translate(-242.752 333.832)" fill="#38454f"/>
    <path id="Path_1238" data-name="Path 1238" d="M78.586-432.2a3.038,3.038,0,0,0-3.039,3.039,3.039,3.039,0,0,0,3.039,3.039,3.04,3.04,0,0,0,3.039-3.039A3.041,3.041,0,0,0,78.586-432.2Z" transform="translate(-69.095 432.203)" fill="#38454f"/>
  </g>
</svg>
