<svg xmlns="http://www.w3.org/2000/svg" xmlns:xlink="http://www.w3.org/1999/xlink" width="23.997" height="31.74" viewBox="0 0 23.997 31.74">
  <defs>
    <clipPath id="clip-path">
      <rect width="23.997" height="31.74" fill="none"/>
    </clipPath>
  </defs>
  <g id="Fitness_bianco" data-name="Fitness bianco" clip-path="url(#clip-path)">
    <path id="Path_1360" data-name="Path 1360" d="M22.074-61.851a14.157,14.157,0,0,0-11.3,6.66A52.6,52.6,0,0,0,5.176-44.8,82.073,82.073,0,0,0,.119-32.875c-.826,2.4,2.882,3.961,3.713,1.553a93.312,93.312,0,0,1,3.61-9.047c1.369,2.99,2.76,5.971,4.253,8.9,1.157,2.277,4.64.28,3.487-1.989-1.537-3.02-2.966-6.087-4.373-9.166.018-.06.04-.118.059-.177a1.7,1.7,0,0,0,.778.032l6.461-1.183a1.593,1.593,0,0,0,1.128-1.939,9.824,9.824,0,0,0-3.525-5.552,5.56,5.56,0,0,0-2.044-2.334c1.909-3.012,5.024-4.647,9.08-5C24.815-58.944,24.126-62.027,22.074-61.851ZM14.229-48.444a7.352,7.352,0,0,1,1.328,1.769l-3.126.572A17.3,17.3,0,0,1,14.229-48.444Z" transform="translate(0 61.858)" fill="#5e5c6f"/>
  </g>
</svg>
