<svg xmlns="http://www.w3.org/2000/svg" xmlns:xlink="http://www.w3.org/1999/xlink" width="33.938" height="33.937" viewBox="0 0 33.938 33.937"><defs><clipPath id="a"><rect width="33.938" height="33.937" fill="none"/></clipPath></defs><g clip-path="url(#a)"><path d="M198-313.376v6.36a2.121,2.121,0,0,0,2.121,2.121h9.612l4.375,3.579v-3.579h1.922a2.121,2.121,0,0,0,2.121-2.121v-12.859A2.121,2.121,0,0,0,216.029-322h-9.94Zm0,0" transform="translate(-184.876 334.59)" fill="#91ddf4"/><path d="M20.275-502A10.276,10.276,0,0,0,10-491.721a10.228,10.228,0,0,0,1.963,6.041L10.7-482.9l3.135-.819h0a10.231,10.231,0,0,0,6.444,2.272,10.276,10.276,0,0,0,10.276-10.276A10.276,10.276,0,0,0,20.275-502Zm0,0" transform="translate(-9.337 502.659)" fill="#ffca7b"/><path d="M31.154-500.065H21.831c.03-.327.046-.658.046-.993A10.951,10.951,0,0,0,10.938-512a10.936,10.936,0,0,0-5.465,1.461.663.663,0,0,0-.242.905.663.663,0,0,0,.906.242,9.607,9.607,0,0,1,4.8-1.283,9.624,9.624,0,0,1,9.613,9.613,9.624,9.624,0,0,1-9.613,9.613,9.505,9.505,0,0,1-6.028-2.125.663.663,0,0,0-.611-.117l-1.759.46.689-1.515a.663.663,0,0,0-.067-.665,9.539,9.539,0,0,1-1.837-5.651,9.607,9.607,0,0,1,1.29-4.814.663.663,0,0,0-.241-.906.663.663,0,0,0-.906.241A10.936,10.936,0,0,0,0-501.058a10.852,10.852,0,0,0,1.866,6.111l-1.11,2.438a.662.662,0,0,0,.1.7.662.662,0,0,0,.675.214l2.819-.737a10.97,10.97,0,0,0,6.592,2.21,10.984,10.984,0,0,0,1.523-.107v5.8a2.787,2.787,0,0,0,2.784,2.784H24.62l4.192,3.429a.661.661,0,0,0,.42.15.663.663,0,0,0,.284-.064.663.663,0,0,0,.379-.6v-2.916h1.259a2.787,2.787,0,0,0,2.784-2.784v-12.859A2.787,2.787,0,0,0,31.154-500.065Zm1.458,15.643a1.46,1.46,0,0,1-1.458,1.458H29.232a.663.663,0,0,0-.663.663v2.18L25.295-482.8c-.18-.165-.338-.165-.693-.165H15.245a1.46,1.46,0,0,1-1.458-1.458V-490.5a10.975,10.975,0,0,0,7.841-8.243h9.525a1.46,1.46,0,0,1,1.458,1.458Zm0,0" transform="translate(0 511.996)"/><path d="M294.834-255.383a.662.662,0,0,0,.381-.6.663.663,0,0,0-.663-.663h-.271l-2.138-4.872a.663.663,0,0,0-.607-.4.663.663,0,0,0-.607.4l-2.138,4.872h-.271a.663.663,0,0,0-.663.663.662.662,0,0,0,.381.6l-.8,1.815a.663.663,0,0,0,.34.873.663.663,0,0,0,.873-.341l1-2.283h3.757l1,2.283a.663.663,0,0,0,.607.4.66.66,0,0,0,.266-.056.663.663,0,0,0,.34-.873Zm-4.6-1.262,1.3-2.956,1.3,2.956Zm0,0" transform="translate(-268.336 278.491)"/><path d="M46.065-465.272a.669.669,0,0,0,.469-.194.668.668,0,0,0,.194-.469.669.669,0,0,0-.194-.469.669.669,0,0,0-.469-.194.667.667,0,0,0-.469.194.669.669,0,0,0-.194.469.668.668,0,0,0,.194.469A.667.667,0,0,0,46.065-465.272Zm0,0" transform="translate(-42.393 469.607)"/><path d="M100.478-417.29a.663.663,0,0,0-.263.9.663.663,0,0,0,.582.344.661.661,0,0,0,.318-.082,7.591,7.591,0,0,0,3.281-3.559,7.592,7.592,0,0,0,3.281,3.559.661.661,0,0,0,.318.082.663.663,0,0,0,.582-.344.663.663,0,0,0-.263-.9,6.269,6.269,0,0,1-3.184-4.561h2.943a.663.663,0,0,0,.663-.663.663.663,0,0,0-.663-.663h-3.014v-2.762a.663.663,0,0,0-.663-.663.663.663,0,0,0-.663.663v2.762h-2.395a.663.663,0,0,0-.663.663.663.663,0,0,0,.663.663h2.324A6.268,6.268,0,0,1,100.478-417.29Zm0,0" transform="translate(-93.496 432.262)"/></g></svg>