<svg xmlns="http://www.w3.org/2000/svg" width="41.906" height="34.344" viewBox="0 0 41.906 34.344"><g transform="translate(0 -26.798)"><path d="M40.584,251.464H1.322a1.322,1.322,0,0,0,0,2.644H40.584a1.322,1.322,0,0,0,0-2.644Z" transform="translate(0 -192.966)" fill="#2a4c5b"/><path d="M19.815,127.792v13.124H18.97a1.3,1.3,0,0,0-1.3,1.3v.845H54.588v-.845a1.3,1.3,0,0,0-1.3-1.3h-.845V127.792h-6.89v13.124H39.574V127.792h-6.89v13.124H26.7V127.792Z" transform="translate(-15.177 -86.744)" fill="#2a4c5b"/><path d="M10.669,38.867H47.332a1.3,1.3,0,0,0,.541-2.483L29.6,26.943a1.3,1.3,0,0,0-1.193,0l-18.33,9.469a1.3,1.3,0,0,0,.6,2.455Z" transform="translate(-8.047)" fill="#2a4c5b"/></g></svg>