<svg xmlns="http://www.w3.org/2000/svg" width="37.305" height="41.795" viewBox="0 0 37.305 41.795"><g transform="translate(-27.502)"><g transform="translate(29.951 25.714)"><g transform="translate(0)"><path d="M65.461,315H58.114a.612.612,0,0,0-.612.612v3.673a.612.612,0,0,0,.612.612h7.347a.612.612,0,0,0,.612-.612v-3.673A.612.612,0,0,0,65.461,315Zm-.612,3.673H58.726v-2.449h6.122Z" transform="translate(-57.502 -315)" fill="#2a4c5b"/></g></g><g transform="translate(27.502 23.265)"><path d="M40.359,285H28.114a.612.612,0,0,0-.612.612v17.306a.612.612,0,0,0,.612.612h4.9a.612.612,0,0,0,0-1.224H28.726V286.224h11.02v16.081H35.461a.612.612,0,0,0,0,1.224h4.9a.612.612,0,0,0,.612-.612V285.612A.612.612,0,0,0,40.359,285Z" transform="translate(-27.502 -285)" fill="#2a4c5b"/></g><g transform="translate(29.951 13.469)"><g transform="translate(0)"><path d="M64.237,167.7v-1.479h.612a.612.612,0,1,0,0-1.224H58.726a.612.612,0,1,0,0,1.224h.612V167.7a3.062,3.062,0,0,0,1.224,5.868h2.449a3.062,3.062,0,0,0,1.224-5.868Zm-1.224,4.643H60.563a1.837,1.837,0,0,1-.46-3.616.612.612,0,0,0,.46-.593v-1.914h2.449v1.914a.612.612,0,0,0,.46.593,1.837,1.837,0,0,1-.46,3.616Z" transform="translate(-57.502 -165)" fill="#2a4c5b"/></g></g><g transform="translate(45.216 8.163)"><g transform="translate(0)"><path d="M248.788,100a4.286,4.286,0,1,0,4.286,4.286A4.291,4.291,0,0,0,248.788,100Zm0,7.347a3.061,3.061,0,1,1,3.061-3.061A3.065,3.065,0,0,1,248.788,107.347Z" transform="translate(-244.502 -100)" fill="#2a4c5b"/></g></g><g transform="translate(42.155 17.959)"><path d="M216.39,220h-4.082a2.249,2.249,0,0,0-2.171,1.672,3.673,3.673,0,0,0-.036,7.262,4.275,4.275,0,0,0,1.186,2.428v10.6l-2.03.677a.612.612,0,1,0,.387,1.162l2.449-.816a.612.612,0,0,0,.419-.581V232.239a4.278,4.278,0,0,0,3.673,0v9.728l-2.03.677a.612.612,0,1,0,.387,1.162l2.449-.816a.612.612,0,0,0,.419-.581V231.362a4.271,4.271,0,0,0,1.224-3v-6.122h0A2.247,2.247,0,0,0,216.39,220Zm-6.326,7.678a2.449,2.449,0,0,1,0-4.743Zm4.286,3.751a3.066,3.066,0,0,1-3-2.449h6A3.066,3.066,0,0,1,214.349,231.428Zm3.061-3.673h-6.122v-5.51a1.022,1.022,0,0,1,1.02-1.02h4.082a1.022,1.022,0,0,1,1.02,1.02Z" transform="translate(-207.002 -220)" fill="#2a4c5b"/></g><g transform="translate(57.461 18.366)"><g transform="translate(0)"><path d="M395.547,225.169a.612.612,0,1,0,.18.433A.617.617,0,0,0,395.547,225.169Z" transform="translate(-394.502 -224.99)" fill="#2a4c5b"/></g></g><g transform="translate(57.461 15.917)"><g transform="translate(0)"><path d="M395.547,195.169a.612.612,0,1,0,.18.433A.617.617,0,0,0,395.547,195.169Z" transform="translate(-394.502 -194.99)" fill="#2a4c5b"/></g></g><g transform="translate(53.787 13.469)"><path d="M359.3,172.735v-5.49A2.247,2.247,0,0,0,357.051,165h-4.082a2.247,2.247,0,0,0-2.245,2.245v13.061a.612.612,0,0,0,.612.612h.612v10.538l-2.03.677a.612.612,0,1,0,.387,1.162l2.449-.816a.612.612,0,0,0,.419-.581V180.918h3.673v10.538l-2.03.677a.612.612,0,1,0,.387,1.162l2.449-.816a.612.612,0,0,0,.419-.581V180.918h1.837a.612.612,0,0,0,.612-.612V176.2A5.5,5.5,0,0,0,359.3,172.735Zm0,6.958h-7.347V167.245a1.021,1.021,0,0,1,1.02-1.02h4.082a1.022,1.022,0,0,1,1.02,1.02v5.714a.613.613,0,0,0,.153.405A4.28,4.28,0,0,1,359.3,176.2Z" transform="translate(-349.499 -165)" fill="#2a4c5b"/></g><g transform="translate(55.012)"><path d="M370.612,4.082a2.449,2.449,0,1,0-3.646,0,4.29,4.29,0,0,0-.7.418c-.016.01-.031.02-.046.031a.617.617,0,0,0-.048.04,4.284,4.284,0,1,0,4.444-.49Zm-1.823-2.857a1.224,1.224,0,1,1-1.224,1.224A1.226,1.226,0,0,1,368.789,1.224Zm0,3.673a3.066,3.066,0,0,1,2.992,2.415,6.66,6.66,0,0,1-4.269-2.134A3.043,3.043,0,0,1,368.789,4.9Zm0,6.122a3.059,3.059,0,0,1-2.269-5.113,7.874,7.874,0,0,0,5.274,2.637A3.066,3.066,0,0,1,368.789,11.02Z" transform="translate(-364.503)" fill="#2a4c5b"/></g><g transform="translate(59.91 15.714)"><g transform="translate(0)"><path d="M425.114,192.5a.612.612,0,0,0-.612.612v10a.612.612,0,0,0,1.224,0v-10A.612.612,0,0,0,425.114,192.5Z" transform="translate(-424.502 -192.5)" fill="#2a4c5b"/></g></g></g></svg>