<?xml version="1.0" encoding="UTF-8" standalone="no"?>
<!DOCTYPE svg PUBLIC "-//W3C//DTD SVG 1.1//EN" "http://www.w3.org/Graphics/SVG/1.1/DTD/svg11.dtd">
<svg width="100%" height="100%" viewBox="0 0 512 512" version="1.1" xmlns="http://www.w3.org/2000/svg" xmlns:xlink="http://www.w3.org/1999/xlink" xml:space="preserve" xmlns:serif="http://www.serif.com/" style="fill-rule:evenodd;clip-rule:evenodd;stroke-linejoin:round;stroke-miterlimit:2;">
    <g transform="matrix(1,0,0,1,-934,-800)">
        <g id="pin-monumenti" serif:id="pin monumenti" transform="matrix(1,0,0,1,934,800)">
            <rect x="0" y="0" width="512" height="512" style="fill:none;"/>
            <g transform="matrix(1,0,0,1,0,7.02763e-06)">
                <path d="M256,0C148.48,0 61,87.48 61,195C61,237.55 74.44,277.98 99.9,311.9L243.98,505.951C244.34,506.421 244.89,506.601 245.29,507.021C252.49,514.731 262.88,512.791 268.01,505.951C309.5,450.591 385.55,347.2 414.79,308.2C414.79,308.2 414.8,308.17 414.81,308.15L414.99,307.91C438.55,274.81 451,235.77 451,195C451,87.48 363.52,0 256,0Z" style="fill-rule:nonzero;"/>
                <g transform="matrix(1.29757,0,0,1.29757,-483.914,-532.576)">
                    <circle cx="571" cy="562" r="140" style="fill:white;"/>
                </g>
            </g>
            <g transform="matrix(0.535161,0,0,0.535161,256.003,172.998)">
                <g transform="matrix(1,0,0,1,-256.002,-256.002)">
                    <g>
                        <g>
                            <path d="M486.403,459.509L486.403,450.976C486.332,440.191 479.506,430.608 469.336,427.017L469.336,416.843C469.303,406.03 462.468,396.408 452.269,392.815L452.269,261.67C462.468,258.078 469.302,248.456 469.336,237.642L469.336,222.592L484.886,191.492L509.502,166.875C512.834,163.548 512.839,158.15 509.512,154.818C509.03,154.336 508.493,153.913 507.911,153.559L260.445,2.546C257.718,0.879 254.288,0.879 251.562,2.546L4.095,153.559C0.073,156.007 -1.204,161.252 1.244,165.274C1.598,165.856 2.021,166.394 2.503,166.875L27.119,191.492L42.669,222.592L42.669,237.642C42.702,248.455 49.537,258.077 59.736,261.669L59.736,392.814C49.537,396.406 42.703,406.028 42.669,416.842L42.669,427.016C32.499,430.607 25.673,440.19 25.602,450.975L25.602,459.508C11.47,459.523 0.017,470.976 0.002,485.108L0.002,502.175C0.001,506.887 3.819,510.707 8.531,510.708L503.47,510.708C508.182,510.709 512.002,506.891 512.003,502.179L512.003,485.108C511.988,470.977 500.535,459.524 486.403,459.509ZM452.27,237.642C452.265,242.353 448.448,246.171 443.737,246.175L392.537,246.175C387.826,246.17 384.008,242.353 384.004,237.642L384.004,229.109L452.271,229.109L452.271,237.642L452.27,237.642ZM213.337,392.815L213.337,261.67C223.536,258.078 230.37,248.456 230.404,237.642L230.404,229.109L281.604,229.109L281.604,237.642C281.637,248.455 288.472,258.077 298.671,261.669L298.671,392.814C288.472,396.406 281.638,406.028 281.604,416.842L281.604,425.375L230.404,425.375L230.404,416.842C230.37,406.029 223.535,396.407 213.337,392.815ZM68.27,246.176C63.559,246.171 59.741,242.354 59.737,237.643L59.737,229.11L128.004,229.11L128.004,237.643C127.999,242.354 124.182,246.172 119.471,246.176L68.27,246.176ZM110.936,263.242L110.936,391.242L76.803,391.242L76.803,263.242L110.936,263.242ZM128.003,261.67C131.154,260.551 134.053,258.823 136.536,256.584C139.019,258.823 141.919,260.551 145.069,261.669L145.069,392.814C141.918,393.933 139.019,395.661 136.536,397.9C134.053,395.661 131.153,393.933 128.003,392.814L128.003,261.67ZM145.07,416.842C145.075,412.131 148.893,408.313 153.603,408.309L204.803,408.309C209.514,408.314 213.332,412.131 213.336,416.842L213.336,425.375L145.07,425.375L145.07,416.842ZM162.136,391.242L162.136,263.242L196.269,263.242L196.269,391.242L162.136,391.242ZM204.803,246.176L153.603,246.176C148.892,246.171 145.074,242.354 145.07,237.643L145.07,229.11L213.337,229.11L213.337,237.643C213.332,242.353 209.514,246.171 204.803,246.176ZM298.67,416.842C298.675,412.131 302.492,408.313 307.203,408.309L358.403,408.309C363.114,408.314 366.932,412.131 366.936,416.842L366.936,425.375L298.67,425.375L298.67,416.842ZM315.736,391.242L315.736,263.242L349.869,263.242L349.869,391.242L315.736,391.242ZM358.403,246.176L307.203,246.176C302.492,246.171 298.674,242.354 298.67,237.643L298.67,229.11L366.937,229.11L366.937,237.643C366.932,242.353 363.114,246.171 358.403,246.176ZM366.936,261.67C370.087,260.551 372.986,258.823 375.469,256.584C377.952,258.823 380.852,260.551 384.002,261.669L384.002,392.814C380.851,393.933 377.952,395.661 375.469,397.9C372.986,395.661 370.086,393.933 366.936,392.814L366.936,261.67ZM384.003,416.842C384.008,412.131 387.826,408.313 392.536,408.309L443.736,408.309C448.447,408.314 452.265,412.131 452.269,416.842L452.269,425.375L384.002,425.375L384.002,416.842L384.003,416.842ZM401.07,391.242L401.07,263.242L435.203,263.242L435.203,391.242L401.07,391.242ZM35.403,175.642L22.236,162.475L256.003,19.825L489.77,162.475L476.603,175.642L260.478,42.642C257.734,40.95 254.272,40.95 251.528,42.642L35.403,175.642ZM447.72,177.909L64.286,177.909L256.003,59.93L447.72,177.909ZM56.478,212.042L47.945,194.975L464.062,194.975L455.529,212.042L56.478,212.042ZM59.736,416.842C59.741,412.131 63.558,408.313 68.269,408.309L119.469,408.309C124.18,408.314 127.998,412.131 128.002,416.842L128.002,425.375L59.736,425.375L59.736,416.842ZM494.936,493.642L17.07,493.642L17.07,485.109C17.075,480.398 20.892,476.58 25.603,476.576L204.803,476.576C209.516,476.576 213.336,472.756 213.336,468.043C213.336,463.33 209.515,459.51 204.803,459.51L42.67,459.51L42.67,450.977C42.769,446.175 46.734,442.358 51.537,442.444L460.47,442.444C465.272,442.359 469.238,446.175 469.337,450.977L469.337,459.51L307.203,459.51C302.49,459.51 298.67,463.33 298.67,468.043C298.67,472.756 302.49,476.576 307.203,476.576L486.403,476.576C491.114,476.581 494.932,480.398 494.936,485.109L494.936,493.642Z" style="fill-rule:nonzero;"/>
                        </g>
                    </g>
                    <g>
                        <g>
                            <path d="M256.003,88.309C237.16,88.329 221.89,103.599 221.87,122.442C221.87,141.293 237.152,156.575 256.003,156.575C274.854,156.575 290.136,141.293 290.136,122.442C290.136,103.591 274.854,88.309 256.003,88.309ZM256.003,139.509C246.577,139.509 238.936,131.868 238.936,122.442C238.936,113.016 246.577,105.375 256.003,105.375C265.424,105.386 273.059,113.02 273.07,122.442C273.07,131.868 265.429,139.509 256.003,139.509Z" style="fill-rule:nonzero;"/>
                        </g>
                    </g>
                </g>
            </g>
        </g>
    </g>
</svg>
