<?xml version="1.0" encoding="UTF-8" standalone="no"?>
<!DOCTYPE svg PUBLIC "-//W3C//DTD SVG 1.1//EN" "http://www.w3.org/Graphics/SVG/1.1/DTD/svg11.dtd">
<svg width="100%" height="100%" viewBox="0 0 512 512" version="1.1" xmlns="http://www.w3.org/2000/svg" xmlns:xlink="http://www.w3.org/1999/xlink" xml:space="preserve" xmlns:serif="http://www.serif.com/" style="fill-rule:evenodd;clip-rule:evenodd;stroke-linejoin:round;stroke-miterlimit:2;">
    <g transform="matrix(1,0,0,1,-2605,-799.995)">
        <g id="pin-Musei" serif:id="pin Musei" transform="matrix(1,0,0,1,2605,799.995)">
            <rect x="0" y="0" width="512" height="512" style="fill:none;"/>
            <g transform="matrix(1,0,0,1,0,7.02763e-06)">
                <path d="M256,0C148.48,0 61,87.48 61,195C61,237.55 74.44,277.98 99.9,311.9L243.98,505.951C244.34,506.421 244.89,506.601 245.29,507.021C252.49,514.731 262.88,512.791 268.01,505.951C309.5,450.591 385.55,347.2 414.79,308.2C414.79,308.2 414.8,308.17 414.81,308.15L414.99,307.91C438.55,274.81 451,235.77 451,195C451,87.48 363.52,0 256,0Z" style="fill-rule:nonzero;"/>
                <g transform="matrix(1.29757,0,0,1.29757,-483.914,-532.576)">
                    <circle cx="571" cy="562" r="140" style="fill:white;"/>
                </g>
            </g>
            <g transform="matrix(0.464844,0,0,0.464844,256,191.005)">
                <g transform="matrix(1,0,0,1,-256,-256)">
                    <g>
                        <g>
                            <g>
                                <path d="M150,492C144.49,492 140,496.49 140,502C140,507.51 144.49,512 150,512C155.51,512 160,507.51 160,502C160,496.49 155.51,492 150,492Z" style="fill-rule:nonzero;"/>
                                <path d="M501.94,492L473.385,492L473.385,428.863C480.791,421.321 485.369,411.01 485.369,399.649C485.369,376.597 466.547,357.843 443.412,357.843C422.551,357.843 405.203,373.094 401.994,392.992C342.344,433.242 274.9,445.346 201.439,428.929C155.074,418.567 120.468,399.428 109.293,392.727C105.972,372.959 88.689,357.842 67.922,357.842C44.787,357.842 25.965,376.596 25.965,399.648C25.965,411.009 30.543,421.32 37.949,428.862L37.949,492L10,492C4.49,492 0,496.49 0,502C0,507.51 4.49,512 10,512L110,512C115.51,512 120,507.51 120,502C120,496.49 115.51,492 110,492L97.895,492L97.895,428.863C101.875,424.809 105.034,419.954 107.108,414.566C123.729,423.742 155.48,439.052 196.354,448.285C218.858,453.368 241.151,455.915 262.987,455.915C275.45,455.915 287.764,455.085 299.882,453.423C336.817,448.357 371.937,435.521 404.489,415.224C406.561,420.349 409.622,424.974 413.44,428.863L413.44,492L401.94,492C396.43,492 391.94,496.49 391.94,502C391.94,507.51 396.43,512 401.94,512L501.94,512C507.46,512 511.94,507.51 511.94,502C511.94,496.49 507.46,492 501.94,492ZM77.895,492L57.949,492L57.949,440.251C61.146,441.031 64.484,441.454 67.922,441.454C71.358,441.454 74.695,441.031 77.895,440.251L77.895,492ZM67.922,421.455C55.815,421.455 45.965,411.673 45.965,399.649C45.965,387.625 55.815,377.843 67.922,377.843C80.028,377.843 89.879,387.625 89.879,399.649C89.879,411.673 80.028,421.455 67.922,421.455ZM453.386,492L433.44,492L433.44,440.251C436.639,441.031 439.977,441.454 443.413,441.454C446.851,441.454 450.188,441.031 453.386,440.251L453.386,492ZM443.413,421.455C431.306,421.455 421.456,411.673 421.456,399.649C421.456,387.625 431.306,377.843 443.413,377.843C455.52,377.843 465.37,387.625 465.37,399.649C465.37,411.673 455.52,421.455 443.413,421.455Z" style="fill-rule:nonzero;"/>
                                <path d="M361.94,492C356.43,492 351.94,496.49 351.94,502C351.94,507.51 356.43,512 361.94,512C367.46,512 371.94,507.51 371.94,502C371.94,496.49 367.46,492 361.94,492Z" style="fill-rule:nonzero;"/>
                                <path d="M10.5,141.917L153.306,141.917C158.828,141.917 163.306,137.44 163.306,131.917L163.306,11.651C163.306,6.128 158.828,1.651 153.306,1.651L10.5,1.651C4.977,1.651 0.5,6.128 0.5,11.651L0.5,131.918C0.5,137.44 4.977,141.917 10.5,141.917ZM20.5,21.651L143.306,21.651L143.306,121.918L20.5,121.918L20.5,21.651Z" style="fill-rule:nonzero;"/>
                                <path d="M502,0L196.747,0C191.224,0 186.747,4.477 186.747,10L186.747,163.398C186.747,168.921 191.224,173.398 196.747,173.398L502,173.398C507.523,173.398 512,168.921 512,163.398L512,10C512,4.477 507.524,0 502,0ZM492,153.398L206.747,153.398L206.747,20L492,20L492,153.398Z" style="fill-rule:nonzero;"/>
                                <path d="M112.424,41.321L51.381,41.321C45.858,41.321 41.381,45.798 41.381,51.321L41.381,91.078C41.381,96.601 45.858,101.078 51.381,101.078L112.424,101.078C117.948,101.078 122.424,96.601 122.424,91.078L122.424,51.321C122.424,45.798 117.947,41.321 112.424,41.321ZM102.424,81.078L61.381,81.078L61.381,61.321L102.424,61.321L102.424,81.078Z" style="fill-rule:nonzero;"/>
                                <path d="M10.5,332.926L153.306,332.926C158.828,332.926 163.306,328.449 163.306,322.926L163.306,172.841C163.306,167.318 158.828,162.841 153.306,162.841L10.5,162.841C4.977,162.841 0.5,167.318 0.5,172.841L0.5,322.926C0.5,328.448 4.977,332.926 10.5,332.926ZM20.5,182.841L143.306,182.841L143.306,312.926L20.5,312.926L20.5,182.841Z" style="fill-rule:nonzero;"/>
                                <path d="M112.424,202.51L51.381,202.51C45.858,202.51 41.381,206.987 41.381,212.51L41.381,282.086C41.381,287.609 45.858,292.086 51.381,292.086L112.424,292.086C117.948,292.086 122.424,287.609 122.424,282.086L122.424,212.51C122.424,206.987 117.947,202.51 112.424,202.51ZM102.424,272.086L61.381,272.086L61.381,222.51L102.424,222.51L102.424,272.086Z" style="fill-rule:nonzero;"/>
                                <path d="M483.969,335.442C489.49,335.442 493.969,330.965 493.969,325.442L493.969,203.175C493.969,197.652 489.49,193.175 483.969,193.175L362.131,193.175C356.609,193.175 352.131,197.652 352.131,203.175L352.131,325.442C352.131,330.965 356.609,335.442 362.131,335.442L483.969,335.442ZM372.131,213.175L473.969,213.175L473.969,315.442L372.131,315.442L372.131,213.175Z" style="fill-rule:nonzero;"/>
                                <path d="M443.524,233.429L402.577,233.429C397.056,233.429 392.577,237.906 392.577,243.429L392.577,285.186C392.577,290.709 397.056,295.186 402.577,295.186L443.524,295.186C449.046,295.186 453.524,290.709 453.524,285.186L453.524,243.429C453.524,237.907 449.045,233.429 443.524,233.429ZM433.524,275.187L412.577,275.187L412.577,253.43L433.524,253.43L433.524,275.187Z" style="fill-rule:nonzero;"/>
                                <path d="M196.248,363.831L318.084,363.831C323.607,363.831 328.084,359.354 328.084,353.831L328.084,203.565C328.084,198.042 323.607,193.565 318.084,193.565L196.248,193.565C190.725,193.565 186.248,198.042 186.248,203.565L186.248,353.832C186.248,359.354 190.725,363.831 196.248,363.831ZM206.248,213.565L308.084,213.565L308.084,343.832L206.248,343.832L206.248,213.565Z" style="fill-rule:nonzero;"/>
                                <path d="M277.639,233.234L236.693,233.234C231.17,233.234 226.693,237.711 226.693,243.234L226.693,312.992C226.693,318.515 231.17,322.992 236.693,322.992L277.639,322.992C283.162,322.992 287.639,318.515 287.639,312.992L287.639,243.234C287.639,237.711 283.163,233.234 277.639,233.234ZM267.639,302.992L246.693,302.992L246.693,253.234L267.639,253.234L267.639,302.992Z" style="fill-rule:nonzero;"/>
                                <path d="M239.689,131.073L458.891,131.073C464.414,131.073 468.891,126.596 468.891,121.073L468.891,52.321C468.891,46.798 464.414,42.321 458.891,42.321L239.689,42.321C234.166,42.321 229.689,46.798 229.689,52.321L229.689,121.074C229.689,126.596 234.166,131.073 239.689,131.073ZM249.689,62.321L448.891,62.321L448.891,111.074L249.689,111.074L249.689,62.321Z" style="fill-rule:nonzero;"/>
                            </g>
                        </g>
                    </g>
                </g>
            </g>
        </g>
    </g>
</svg>
