<?xml version="1.0" encoding="UTF-8" standalone="no"?>
<!DOCTYPE svg PUBLIC "-//W3C//DTD SVG 1.1//EN" "http://www.w3.org/Graphics/SVG/1.1/DTD/svg11.dtd">
<svg width="100%" height="100%" viewBox="0 0 512 512" version="1.1" xmlns="http://www.w3.org/2000/svg" xmlns:xlink="http://www.w3.org/1999/xlink" xml:space="preserve" xmlns:serif="http://www.serif.com/" style="fill-rule:evenodd;clip-rule:evenodd;stroke-linejoin:round;stroke-miterlimit:2;">
    <g transform="matrix(1,0,0,1,-3415,-800)">
        <g id="SHOPPING" transform="matrix(1,0,0,1,3415,800)">
            <rect x="0" y="0" width="512" height="512" style="fill:none;"/>
            <g>
                <g transform="matrix(1,0,0,1,0,7.02763e-06)">
                    <path d="M256,0C148.48,0 61,87.48 61,195C61,237.55 74.44,277.98 99.9,311.9L243.98,505.951C244.34,506.421 244.89,506.601 245.29,507.021C252.49,514.731 262.88,512.791 268.01,505.951C309.5,450.591 385.55,347.2 414.79,308.2C414.79,308.2 414.8,308.17 414.81,308.15L414.99,307.91C438.55,274.81 451,235.77 451,195C451,87.48 363.52,0 256,0Z" style="fill-rule:nonzero;"/>
                    <g transform="matrix(1.29757,0,0,1.29757,-483.914,-532.576)">
                        <circle cx="571" cy="562" r="140" style="fill:white;"/>
                    </g>
                </g>
                <g transform="matrix(0.56252,0,0,0.56252,256,187.995)">
                    <g transform="matrix(1,0,0,1,-256,-256)">
                        <path d="M478.914,341.195C474.77,341.195 471.414,344.555 471.414,348.695L471.414,468.266L316.82,468.266L316.82,326.324C316.82,316.672 308.969,308.82 299.32,308.82L212.68,308.82C203.031,308.82 195.18,316.676 195.18,326.324L195.18,468.266L40.586,468.266L40.586,348.695C40.586,344.555 37.23,341.195 33.086,341.195C28.941,341.195 25.586,344.555 25.586,348.695L25.586,471.766C25.586,478.105 30.746,483.266 37.086,483.266L474.914,483.266C481.254,483.266 486.414,478.105 486.414,471.766L486.414,348.695C486.414,344.555 483.059,341.195 478.914,341.195ZM210.18,468.266L210.18,326.324C210.18,324.945 211.301,323.82 212.68,323.82L299.32,323.82C300.699,323.82 301.82,324.945 301.82,326.324L301.82,468.266L210.18,468.266Z" style="fill-rule:nonzero;"/>
                        <path d="M443.285,438.633C452.09,438.633 459.254,431.469 459.254,422.664L459.254,340.82C459.254,332.016 452.09,324.855 443.285,324.855L350.469,324.855C341.664,324.855 334.5,332.016 334.5,340.82L334.5,422.664C334.5,431.469 341.664,438.633 350.469,438.633L443.285,438.633ZM349.5,422.664L349.5,340.82C349.5,340.289 349.934,339.855 350.469,339.855L443.285,339.855C443.82,339.855 444.254,340.289 444.254,340.82L444.254,422.664C444.254,423.199 443.82,423.633 443.285,423.633L350.469,423.633C349.934,423.633 349.5,423.199 349.5,422.664Z" style="fill-rule:nonzero;"/>
                        <path d="M161.531,438.633C170.336,438.633 177.5,431.469 177.5,422.664L177.5,340.82C177.5,332.016 170.336,324.855 161.531,324.855L68.715,324.855C59.91,324.855 52.746,332.016 52.746,340.82L52.746,422.664C52.746,431.469 59.91,438.633 68.715,438.633L161.531,438.633ZM67.746,422.664L67.746,340.82C67.746,340.289 68.18,339.855 68.715,339.855L161.531,339.855C162.066,339.855 162.5,340.289 162.5,340.82L162.5,422.664C162.5,423.199 162.066,423.633 161.531,423.633L68.715,423.633C68.18,423.633 67.746,423.199 67.746,422.664Z" style="fill-rule:nonzero;"/>
                        <path d="M489.961,139.57C489.961,131.559 496.48,125.043 504.5,125.043C508.645,125.043 512,121.684 512,117.543L512,99.191C512,95.051 508.645,91.691 504.5,91.691L380.691,91.691C376.547,91.691 373.191,95.051 373.191,99.191C373.191,103.336 376.547,106.691 380.691,106.691L497,106.691L497,111.008C486.73,113.703 478.625,121.805 475.926,132.07L357.938,132.07L357.938,65.492C357.938,45.371 341.566,29 321.445,29L190.559,29C170.434,29 154.066,45.371 154.066,65.492L154.066,91.691L7.5,91.691C3.355,91.691 0,95.051 0,99.191L0,117.543C0,121.684 3.355,125.043 7.5,125.043C15.52,125.043 22.039,131.559 22.039,139.57C22.039,142.277 23.473,144.648 25.621,145.969L25.621,197.195L12.125,197.195C5.781,197.195 0.621,202.355 0.621,208.695L0.621,249.535C0.621,255.875 5.781,261.035 12.125,261.035L25.621,261.035L25.621,318.75C25.621,322.891 28.977,326.25 33.121,326.25C37.266,326.25 40.621,322.891 40.621,318.75L40.621,261.035L472,261.035L472,318.762C472,322.902 475.355,326.262 479.5,326.262C483.641,326.262 487,322.902 487,318.762L487,261.035L500.496,261.035C506.84,261.035 512,255.875 512,249.535L512,208.695C512,202.355 506.84,197.195 500.496,197.195L487,197.195L487,145.543C488.797,144.172 489.961,142.008 489.961,139.57ZM169.063,65.492C169.063,53.641 178.707,44 190.555,44L321.441,44C333.293,44 342.934,53.641 342.934,65.492L342.934,147.324C342.934,159.176 333.293,168.816 321.441,168.816L190.559,168.816C178.707,168.816 169.066,159.176 169.066,147.324L169.066,65.492L169.063,65.492ZM497,246.035L15.621,246.035L15.621,212.195L497,212.195L497,246.035ZM40.621,197.195L40.621,147.07L131.57,147.07C135.715,147.07 139.07,143.715 139.07,139.57C139.07,135.43 135.715,132.07 131.57,132.07L36.074,132.07C33.375,121.805 25.27,113.703 15,111.008L15,106.691L154.063,106.691L154.063,147.328C154.063,167.449 170.434,183.82 190.555,183.82L321.441,183.82C341.566,183.82 357.934,167.449 357.934,147.328L357.934,147.074L471.996,147.074L471.996,197.195L40.621,197.195Z" style="fill-rule:nonzero;"/>
                        <path d="M227,388.543L221,388.543C216.855,388.543 213.5,391.902 213.5,396.043C213.5,400.184 216.855,403.543 221,403.543L227,403.543C231.145,403.543 234.5,400.184 234.5,396.043C234.5,391.902 231.145,388.543 227,388.543Z" style="fill-rule:nonzero;"/>
                        <path d="M202.277,73.934L211.469,73.934L220.898,119.012C222.727,127.746 230.531,134.09 239.457,134.09L283.992,134.09C291.832,134.09 298.961,129.16 301.73,121.828L316.438,82.895C317.836,79.188 317.328,75.031 315.078,71.777C312.828,68.52 309.117,66.574 305.16,66.574L242.172,66.574C238.031,66.574 234.672,69.93 234.672,74.074C234.672,78.215 238.031,81.574 242.172,81.574L300.902,81.574L287.699,116.527C287.121,118.059 285.633,119.09 283.996,119.09L239.457,119.09C237.594,119.09 235.965,117.762 235.582,115.941L226.113,70.688C224.688,63.875 218.605,58.934 211.645,58.934L202.281,58.934C198.137,58.934 194.781,62.289 194.781,66.434C194.781,70.574 198.137,73.934 202.277,73.934Z" style="fill-rule:nonzero;"/>
                        <path d="M240.75,140.383L238.75,140.383C234.605,140.383 231.25,143.738 231.25,147.883C231.25,152.023 234.605,155.383 238.75,155.383L240.75,155.383C244.895,155.383 248.25,152.023 248.25,147.883C248.25,143.738 244.895,140.383 240.75,140.383Z" style="fill-rule:nonzero;"/>
                        <path d="M273.25,140.383L271.25,140.383C267.105,140.383 263.75,143.738 263.75,147.883C263.75,152.023 267.105,155.383 271.25,155.383L273.25,155.383C277.395,155.383 280.75,152.023 280.75,147.883C280.75,143.738 277.395,140.383 273.25,140.383Z" style="fill-rule:nonzero;"/>
                    </g>
                </g>
            </g>
        </g>
    </g>
</svg>
