<svg xmlns="http://www.w3.org/2000/svg" width="39.466" height="43.054" viewBox="0 0 39.466 43.054"><g transform="translate(-7 -2)"><path d="M44.273,40.111a5.029,5.029,0,0,0-4.265-4.329V27.761a3.594,3.594,0,0,0,2.87-3.516V19.939a.726.726,0,0,0-.051-.267L39.957,12.5a.718.718,0,0,0-.667-.451H36.42V10.611h1.435a.718.718,0,0,0,.718-.718V2.718A.718.718,0,0,0,37.855,2H12.023a.718.718,0,0,0-.718.718V9.893a.718.718,0,0,0,.718.718h1.435v1.435h-2.87a.718.718,0,0,0-.667.451l-2.87,7.176A.726.726,0,0,0,7,19.939v4.305a3.594,3.594,0,0,0,2.87,3.516V41.466a.718.718,0,0,0,.718.718H29.346a2.826,2.826,0,0,0-.1.718A2.153,2.153,0,0,0,31.4,45.054H44.313A2.153,2.153,0,0,0,46.466,42.9,2.877,2.877,0,0,0,44.273,40.111Zm-2.83-15.867a2.153,2.153,0,1,1-4.305,0v-.718h4.305Zm-5.741,0a2.153,2.153,0,0,1-4.305,0v-.718H35.7Zm-5.741,0a2.153,2.153,0,0,1-4.305,0v-.718h4.305Zm-5.741,0a2.153,2.153,0,1,1-4.305,0v-.718h4.305Zm-5.741,0a2.153,2.153,0,0,1-4.305,0v-.718h4.305ZM8.435,20.657H41.443v1.435H8.435Zm26.55-8.611H33.55V10.611h1.435Zm-17.222,0V10.611H32.115v1.435ZM12.741,3.435h24.4V9.176h-24.4Zm2.153,7.176h1.435v1.435H14.893Zm-3.82,2.87H38.8l2.3,5.741H8.777ZM8.435,24.245v-.718h4.305v.718a2.153,2.153,0,0,1-4.305,0Zm2.87,3.516a3.584,3.584,0,0,0,2.153-1.385,3.555,3.555,0,0,0,5.741,0,3.555,3.555,0,0,0,5.741,0,3.555,3.555,0,0,0,5.741,0,3.555,3.555,0,0,0,5.741,0,3.584,3.584,0,0,0,2.153,1.385v8.022a5.031,5.031,0,0,0-4.254,4.248h-2.2a2.846,2.846,0,0,0-1.879.718H24.222V31.42A.718.718,0,0,0,23.5,30.7H13.458a.718.718,0,0,0-.718.718v9.328H11.305Zm2.87,12.988V32.138h8.611v8.611Zm30.138,2.87H31.4a.718.718,0,0,1-.718-.718,1.435,1.435,0,0,1,1.435-1.435h2.87a.718.718,0,0,0,.718-.718,3.588,3.588,0,0,1,7.176,0,.718.718,0,0,0,.718.718A1.435,1.435,0,0,1,45.031,42.9.718.718,0,0,1,44.313,43.619Z" fill="#2a4c5b"/><rect width="2" height="1" transform="translate(24 6.054)" fill="#2a4c5b"/><rect width="2" height="1" transform="translate(27 6.054)" fill="#2a4c5b"/><rect width="2" height="1" transform="translate(21 6.054)" fill="#2a4c5b"/><path d="M33.718,47.741H43.763a.718.718,0,0,0,.718-.718V42.718A.718.718,0,0,0,43.763,42H33.718a.718.718,0,0,0-.718.718v4.305A.718.718,0,0,0,33.718,47.741Zm.718-4.305h8.611v2.87H34.435Z" transform="translate(-7.343 -11.297)" fill="#2a4c5b"/></g></svg>