<svg xmlns="http://www.w3.org/2000/svg" xmlns:xlink="http://www.w3.org/1999/xlink" width="25.856" height="34.693" viewBox="0 0 25.856 34.693">
  <defs>
    <clipPath id="clip-path">
      <rect width="25.856" height="34.693" fill="none"/>
    </clipPath>
  </defs>
  <g id="turista_bianco" data-name="turista bianco" clip-path="url(#clip-path)">
    <path id="Path_1230" data-name="Path 1230" d="M137.176-335.421a.583.583,0,0,1-.588.579.583.583,0,0,1-.588-.579.583.583,0,0,1,.588-.579A.583.583,0,0,1,137.176-335.421Z" transform="translate(-126.011 346.388)" fill="#5e5c6f"/>
    <path id="Path_1231" data-name="Path 1231" d="M201.176-335.421a.583.583,0,0,1-.588.579.583.583,0,0,1-.588-.579.583.583,0,0,1,.588-.579A.583.583,0,0,1,201.176-335.421Z" transform="translate(-185.31 346.388)" fill="#5e5c6f"/>
    <path id="Path_1232" data-name="Path 1232" d="M21.055-462.286a1.762,1.762,0,0,0-1.66-1.152,1.762,1.762,0,0,0-1.66,1.152H16.454v-1.036a6.342,6.342,0,0,0,2.938-5.33v-1.736h4.114a.583.583,0,0,0,.588-.579v-1.157a1.75,1.75,0,0,0-1.763-1.736H19.392a6.427,6.427,0,0,0-6.435-5.759,6.427,6.427,0,0,0-6.435,5.759h-3a1.75,1.75,0,0,0-1.763,1.736v1.157a.583.583,0,0,0,.588.579H18.217v1.736a5.249,5.249,0,0,1-5.289,5.208,5.249,5.249,0,0,1-5.289-5.208.583.583,0,0,0-.588-.579.583.583,0,0,0-.588.579,6.342,6.342,0,0,0,2.938,5.33v1.036H8.121a1.762,1.762,0,0,0-1.66-1.152,1.762,1.762,0,0,0-1.66,1.152A5.239,5.239,0,0,0,0-457.078V-445.5a.583.583,0,0,0,.588.579.583.583,0,0,0,.588-.579v-6.365H4.7v6.365a.583.583,0,0,0,.588.579.583.583,0,0,0,.588-.579v-5.266a2.9,2.9,0,0,0,2.351-2.835v-7.523h.088L9.4-454.868a1.725,1.725,0,0,0-.588,1.262v2.315a1.75,1.75,0,0,0,1.763,1.736h4.7a1.75,1.75,0,0,0,1.763-1.736v-2.315a1.725,1.725,0,0,0-.588-1.262l1.087-6.261h.088v7.523a2.9,2.9,0,0,0,2.351,2.835v5.266a.583.583,0,0,0,.588.579.583.583,0,0,0,.588-.579v-6.365h3.526v6.365a.583.583,0,0,0,.588.579.583.583,0,0,0,.588-.579v-11.573A5.239,5.239,0,0,0,21.055-462.286ZM2.938-472.124a.583.583,0,0,1,.588-.579H14.691a.583.583,0,0,0,.588-.579.583.583,0,0,0-.588-.579H7.675a5.261,5.261,0,0,1,5.254-4.608,5.261,5.261,0,0,1,5.254,4.608h-1.14a.583.583,0,0,0-.588.579.583.583,0,0,0,.588.579h5.289a.583.583,0,0,1,.588.579v.579H2.938Zm9.99,9.837a6.593,6.593,0,0,0,2.351-.44v.81l-2.351,2.778-2.351-2.778v-.81A6.593,6.593,0,0,0,12.928-462.286ZM1.175-453.028v-4.051a4.071,4.071,0,0,1,3.526-4v8.055Zm5.876-.579a1.738,1.738,0,0,1-1.175,1.638v-9.739a.583.583,0,0,1,.588-.579.583.583,0,0,1,.588.579Zm8.815,2.315a.583.583,0,0,1-.588.579h-4.7a.583.583,0,0,1-.588-.579v-2.315a.583.583,0,0,1,.588-.579h4.7a.583.583,0,0,1,.588.579Zm-.5-4.051H12.341v-.579a.583.583,0,0,0-.588-.579.583.583,0,0,0-.588.579v.579h-.676l-.981-5.787h.206l2.762,3.264a.591.591,0,0,0,.452.209.591.591,0,0,0,.452-.209l2.762-3.264h.206Zm5.788,2.315v-1.736a.583.583,0,0,0-.588-.579.583.583,0,0,0-.588.579v2.8a1.738,1.738,0,0,1-1.175-1.638v-8.1a.583.583,0,0,1,.588-.579.583.583,0,0,1,.588.579v4.629a.583.583,0,0,0,.588.579.583.583,0,0,0,.588-.579v-4a4.071,4.071,0,0,1,3.526,4v4.051Z" transform="translate(0 479.619)" fill="#5e5c6f"/>
    <path id="Path_1233" data-name="Path 1233" d="M155.527-126.264A1.75,1.75,0,0,0,153.764-128,1.75,1.75,0,0,0,152-126.264a1.75,1.75,0,0,0,1.763,1.736A1.75,1.75,0,0,0,155.527-126.264Zm-1.763.579a.583.583,0,0,1-.588-.579.583.583,0,0,1,.588-.579.583.583,0,0,1,.588.579A.583.583,0,0,1,153.764-125.685Z" transform="translate(-140.835 153.434)" fill="#5e5c6f"/>
  </g>
</svg>
