<svg xmlns="http://www.w3.org/2000/svg" xmlns:xlink="http://www.w3.org/1999/xlink" width="21.971" height="35.126" viewBox="0 0 21.971 35.126">
  <defs>
    <clipPath id="clip-path">
      <rect width="21.971" height="35.126" fill="none"/>
    </clipPath>
  </defs>
  <g id="vecchio_bianco" data-name="vecchio bianco" clip-path="url(#clip-path)">
    <g id="Group_1318" data-name="Group 1318" transform="translate(21.971 35.126) rotate(180)">
      <path id="Path_1221" data-name="Path 1221" d="M21.118,20.932c.457-.287-.208.31-.333.475-.444.58-.859,1.179-1.277,1.777q-.738,1.059-1.451,2.135c-.615.926-1.868,1.041-2.868,1.292a42.547,42.547,0,0,1-4.189.86c-2.468.872-5.723-1.8-4.018-4.688.063-.106.123-.214.185-.32-1.3-1.643-3.252-2.254-5.688-2-1.5.156-1.851-1.551-1.095-2.489V.281H1.479V17.392a8.812,8.812,0,0,1,7.27,2.295q1.115-2.009,2.173-4.047a23.611,23.611,0,0,1-5.1-4.763A1.585,1.585,0,0,1,5.6,9.059a1.962,1.962,0,0,1,.062-.6q.853-3.347,1.706-6.7c.6-2.38,4.4-1.7,3.79.691q-.853,3.348-1.706,6.7c-.006.026-.015.05-.023.076a18.163,18.163,0,0,0,4.206,3.637c.192-3.72.383-7.669.576-11.112.138-2.46,3.988-2.269,3.849.2-.263,4.737-.528,10.431-.793,15.168a1.838,1.838,0,0,1-.374,1.05,3.8,3.8,0,0,1-.257.637q-1.124,2.172-2.317,4.312.5-.132,1-.269c1.089-1.753,2.294-3.992,3.957-5.039C21.27,16.553,23.1,19.686,21.118,20.932Z" transform="translate(0 0)" fill="#fff"/>
      <path id="Path_1222" data-name="Path 1222" d="M6.189,1.91a3.089,3.089,0,0,1-3.93,1.862A3.056,3.056,0,0,1,.132,0Z" transform="translate(2.72 31.197)" fill="#fff"/>
      <path id="Path_1223" data-name="Path 1223" d="M.316.021,10.077,3.1c.146.046.242.154.215.242l-2.22.321L1.759,1.671,0,.1C.028.007.17-.025.316.021Z" transform="translate(1.143 29.161)" fill="#fff"/>
      <path id="Path_1224" data-name="Path 1224" d="M3.927.147a3.1,3.1,0,0,1,2.031,3.9L0,2.161A3.13,3.13,0,0,1,3.927.147Z" transform="translate(3.55 27.272)" fill="#fff"/>
    </g>
  </g>
</svg>
